<?xml version="1.0" standalone="no"?>
<!DOCTYPE svg PUBLIC "-//W3C//DTD SVG 20010904//EN"
 "http://www.w3.org/TR/2001/REC-SVG-20010904/DTD/svg10.dtd">
<svg version="1.0" xmlns="http://www.w3.org/2000/svg"
 width="700.000000pt" height="700.000000pt" viewBox="0 0 700.000000 700.000000"
 preserveAspectRatio="xMidYMid meet">
<metadata>
Created by potrace 1.14, written by Peter Selinger 2001-2017
</metadata>
<g transform="translate(0.000000,700.000000) scale(0.100000,-0.100000)"
fill="#000000" stroke="none">
<path d="M745 5658 c-127 -160 -279 -397 -370 -579 -19 -38 -35 -73 -35 -79 0
-7 643 -10 2008 -10 2212 0 2065 4 2201 -63 89 -43 195 -150 238 -238 90 -183
80 -393 -26 -558 -44 -68 -140 -155 -212 -191 -126 -64 38 -60 -2350 -60
l-2178 0 -8 -57 c-10 -75 -10 -571 0 -645 l8 -58 2178 0 c2388 0 2224 4 2350
-60 72 -36 168 -123 212 -191 207 -322 31 -756 -342 -844 -56 -13 -311 -15
-2071 -15 -1365 0 -2008 -3 -2008 -10 0 -6 16 -41 35 -79 91 -182 243 -419
370 -579 l65 -82 1843 3 c2026 3 1862 -2 2055 63 424 141 748 495 858 936 35
143 44 362 20 509 -40 244 -147 470 -310 659 -30 36 -56 67 -56 70 0 3 26 34
56 70 163 189 270 415 310 659 24 147 15 366 -20 509 -110 441 -434 795 -858
936 -193 65 -29 60 -2055 63 l-1843 3 -65 -82z"/>
</g>
</svg>
