<svg width="1920" height="895" viewBox="0 0 1920 895" fill="none" xmlns="http://www.w3.org/2000/svg">
<mask id="mask0_9_630" style="mask-type:alpha" maskUnits="userSpaceOnUse" x="0" y="0" width="1920" height="895">
<rect width="1920" height="895" fill="#00FFD1"/>
</mask>
<g mask="url(#mask0_9_630)">
<path d="M112.2 -56.7L915.8 246.8L1250.9 994.1" stroke="url(#paint0_linear_9_630)" stroke-width="2" stroke-miterlimit="10"/>
<path d="M98.1 -43.2998L901.6 260.3L1236.4 1006.5" stroke="url(#paint1_linear_9_630)" stroke-width="1.9821" stroke-miterlimit="10"/>
<path d="M84 -29.7998L887.5 273.7L1221.8 1019" stroke="url(#paint2_linear_9_630)" stroke-width="1.9643" stroke-miterlimit="10"/>
<path d="M69.8999 -16.3999L873.4 287.2L1207.3 1031.5" stroke="url(#paint3_linear_9_630)" stroke-width="1.9464" stroke-miterlimit="10"/>
<path d="M55.8 -2.8999L859.3 300.6L1192.7 1044" stroke="url(#paint4_linear_9_630)" stroke-width="1.9286" stroke-miterlimit="10"/>
<path d="M41.6 10.5L845.2 314.1L1178.2 1056.5" stroke="url(#paint5_linear_9_630)" stroke-width="1.9107" stroke-miterlimit="10"/>
<path d="M27.5 24L831.1 327.6L1163.6 1069" stroke="url(#paint6_linear_9_630)" stroke-width="1.8929" stroke-miterlimit="10"/>
<path d="M13.3999 37.5L817 341L1149.1 1081.4" stroke="url(#paint7_linear_9_630)" stroke-width="1.875" stroke-miterlimit="10"/>
<path d="M-0.699951 50.8999L802.9 354.5L1134.5 1093.9" stroke="url(#paint8_linear_9_630)" stroke-width="1.8571" stroke-miterlimit="10"/>
<path d="M-14.8 64.3999L788.8 367.9L1120 1106.4" stroke="url(#paint9_linear_9_630)" stroke-width="1.8393" stroke-miterlimit="10"/>
<path d="M-28.9 77.8L774.6 381.4L1105.4 1118.9" stroke="url(#paint10_linear_9_630)" stroke-width="1.8214" stroke-miterlimit="10"/>
<path d="M-43 91.3L760.5 394.8L1090.9 1131.4" stroke="url(#paint11_linear_9_630)" stroke-width="1.8036" stroke-miterlimit="10"/>
<path d="M-57.1001 104.7L746.4 408.3L1076.3 1143.9" stroke="url(#paint12_linear_9_630)" stroke-width="1.7857" stroke-miterlimit="10"/>
<path d="M-71.2 118.2L732.3 421.8L1061.8 1156.4" stroke="url(#paint13_linear_9_630)" stroke-width="1.7679" stroke-miterlimit="10"/>
<path d="M-85.4 131.7L718.2 435.2L1047.2 1168.8" stroke="url(#paint14_linear_9_630)" stroke-width="1.75" stroke-miterlimit="10"/>
<path d="M-99.5 145.1L704.1 448.7L1032.7 1181.3" stroke="url(#paint15_linear_9_630)" stroke-width="1.7321" stroke-miterlimit="10"/>
<path d="M-113.6 158.6L690 462.1L1018.1 1193.8" stroke="url(#paint16_linear_9_630)" stroke-width="1.7143" stroke-miterlimit="10"/>
<path d="M-127.7 172L675.9 475.6L1003.6 1206.3" stroke="url(#paint17_linear_9_630)" stroke-width="1.6964" stroke-miterlimit="10"/>
<path d="M-141.8 185.5L661.8 489L989.1 1218.8" stroke="url(#paint18_linear_9_630)" stroke-width="1.6786" stroke-miterlimit="10"/>
<path d="M-155.9 198.9L647.6 502.5L974.5 1231.3" stroke="url(#paint19_linear_9_630)" stroke-width="1.6607" stroke-miterlimit="10"/>
<path d="M-170 212.4L633.5 516L960 1243.8" stroke="url(#paint20_linear_9_630)" stroke-width="1.6429" stroke-miterlimit="10"/>
<path d="M-184.1 225.9L619.4 529.4L945.4 1256.2" stroke="url(#paint21_linear_9_630)" stroke-width="1.625" stroke-miterlimit="10"/>
<path d="M-198.2 239.3L605.3 542.9L930.9 1268.7" stroke="url(#paint22_linear_9_630)" stroke-width="1.6071" stroke-miterlimit="10"/>
<path d="M-212.4 252.8L591.2 556.3L916.3 1281.2" stroke="url(#paint23_linear_9_630)" stroke-width="1.5893" stroke-miterlimit="10"/>
<path d="M-226.5 266.2L577.1 569.8L901.8 1293.7" stroke="url(#paint24_linear_9_630)" stroke-width="1.5714" stroke-miterlimit="10"/>
<path d="M-240.6 279.7L563 583.2L887.2 1306.2" stroke="url(#paint25_linear_9_630)" stroke-width="1.5536" stroke-miterlimit="10"/>
<path d="M-254.7 293.1L548.9 596.7L872.7 1318.7" stroke="url(#paint26_linear_9_630)" stroke-width="1.5357" stroke-miterlimit="10"/>
<path d="M-268.8 306.6L534.8 610.2L858.1 1331.1" stroke="url(#paint27_linear_9_630)" stroke-width="1.5179" stroke-miterlimit="10"/>
<path d="M-282.9 320.1L520.6 623.6L843.6 1343.6" stroke="url(#paint28_linear_9_630)" stroke-width="1.5" stroke-miterlimit="10"/>
<path d="M-297 333.5L506.5 637.1L829 1356.1" stroke="url(#paint29_linear_9_630)" stroke-width="1.4821" stroke-miterlimit="10"/>
<path d="M-311.1 347L492.4 650.5L814.5 1368.6" stroke="url(#paint30_linear_9_630)" stroke-width="1.4643" stroke-miterlimit="10"/>
<path d="M-325.2 360.4L478.3 664L799.9 1381.1" stroke="url(#paint31_linear_9_630)" stroke-width="1.4464" stroke-miterlimit="10"/>
<path d="M-339.4 373.9L464.2 677.4L785.4 1393.6" stroke="url(#paint32_linear_9_630)" stroke-width="1.4286" stroke-miterlimit="10"/>
<path d="M-353.5 387.3L450.1 690.9L770.8 1406.1" stroke="url(#paint33_linear_9_630)" stroke-width="1.4107" stroke-miterlimit="10"/>
<path d="M-367.6 400.8L436 704.4L756.3 1418.5" stroke="url(#paint34_linear_9_630)" stroke-width="1.3929" stroke-miterlimit="10"/>
<path d="M-381.7 414.3L421.9 717.8L741.8 1431" stroke="url(#paint35_linear_9_630)" stroke-width="1.375" stroke-miterlimit="10"/>
<path d="M-395.8 427.7L407.8 731.3L727.2 1443.5" stroke="url(#paint36_linear_9_630)" stroke-width="1.3571" stroke-miterlimit="10"/>
<path d="M-409.9 441.2L393.6 744.7L712.7 1456" stroke="url(#paint37_linear_9_630)" stroke-width="1.3393" stroke-miterlimit="10"/>
<path d="M-424 454.6L379.5 758.2L698.1 1468.5" stroke="url(#paint38_linear_9_630)" stroke-width="1.3214" stroke-miterlimit="10"/>
<path d="M-438.1 468.1L365.4 771.6L683.6 1481" stroke="url(#paint39_linear_9_630)" stroke-width="1.3036" stroke-miterlimit="10"/>
<path d="M-452.2 481.5L351.3 785.1L669 1493.4" stroke="url(#paint40_linear_9_630)" stroke-width="1.2857" stroke-miterlimit="10"/>
<path d="M-466.4 495L337.2 798.6L654.5 1505.9" stroke="url(#paint41_linear_9_630)" stroke-width="1.2679" stroke-miterlimit="10"/>
<path d="M-480.5 508.5L323.1 812L639.9 1518.4" stroke="url(#paint42_linear_9_630)" stroke-width="1.25" stroke-miterlimit="10"/>
<path d="M-494.6 521.9L309 825.5L625.4 1530.9" stroke="url(#paint43_linear_9_630)" stroke-width="1.2321" stroke-miterlimit="10"/>
<path d="M-508.7 535.4L294.9 838.9L610.8 1543.4" stroke="url(#paint44_linear_9_630)" stroke-width="1.2143" stroke-miterlimit="10"/>
<path d="M-522.8 548.8L280.8 852.4L596.3 1555.9" stroke="url(#paint45_linear_9_630)" stroke-width="1.1964" stroke-miterlimit="10"/>
<path d="M-536.9 562.3L266.6 865.8L581.7 1568.4" stroke="url(#paint46_linear_9_630)" stroke-width="1.1786" stroke-miterlimit="10"/>
<path d="M-551 575.7L252.5 879.3L567.2 1580.8" stroke="url(#paint47_linear_9_630)" stroke-width="1.1607" stroke-miterlimit="10"/>
<path d="M-565.1 589.2L238.4 892.8L552.6 1593.3" stroke="url(#paint48_linear_9_630)" stroke-width="1.1429" stroke-miterlimit="10"/>
<path d="M-579.2 602.7L224.3 906.2L538.1 1605.8" stroke="url(#paint49_linear_9_630)" stroke-width="1.125" stroke-miterlimit="10"/>
<path d="M-593.4 616.1L210.2 919.7L523.5 1618.3" stroke="url(#paint50_linear_9_630)" stroke-width="1.1071" stroke-miterlimit="10"/>
<path d="M-607.5 629.6L196.1 933.1L509 1630.8" stroke="url(#paint51_linear_9_630)" stroke-width="1.0893" stroke-miterlimit="10"/>
<path d="M-621.6 643L182 946.6L494.4 1643.3" stroke="url(#paint52_linear_9_630)" stroke-width="1.0714" stroke-miterlimit="10"/>
<path d="M-635.7 656.5L167.9 960L479.9 1655.8" stroke="url(#paint53_linear_9_630)" stroke-width="1.0536" stroke-miterlimit="10"/>
<path d="M-649.8 669.9L153.8 973.5L465.4 1668.2" stroke="url(#paint54_linear_9_630)" stroke-width="1.0357" stroke-miterlimit="10"/>
<path d="M-663.9 683.4L139.6 987L450.8 1680.7" stroke="url(#paint55_linear_9_630)" stroke-width="1.0179" stroke-miterlimit="10"/>
<path d="M-678 696.9L125.5 1000.4L436.3 1693.2" stroke="url(#paint56_linear_9_630)" stroke-miterlimit="10"/>
<path d="M2104.2 1004L1231.3 722.6L844 -41.3999" stroke="url(#paint57_linear_9_630)" stroke-width="2" stroke-miterlimit="10"/>
<path d="M2116.8 987.9L1244.4 706.7L857.4 -56.8999" stroke="url(#paint58_linear_9_630)" stroke-width="1.9821" stroke-miterlimit="10"/>
<path d="M2129.5 971.7L1257.6 690.7L870.8 -72.3999" stroke="url(#paint59_linear_9_630)" stroke-width="1.9643" stroke-miterlimit="10"/>
<path d="M2142.1 955.6L1270.8 674.7L884.2 -87.8999" stroke="url(#paint60_linear_9_630)" stroke-width="1.9464" stroke-miterlimit="10"/>
<path d="M2154.7 939.4L1284 658.8L897.6 -103.5" stroke="url(#paint61_linear_9_630)" stroke-width="1.9286" stroke-miterlimit="10"/>
<path d="M2167.3 923.3L1297.1 642.8L910.9 -119" stroke="url(#paint62_linear_9_630)" stroke-width="1.9107" stroke-miterlimit="10"/>
<path d="M2180 907.2L1310.3 626.9L924.3 -134.5" stroke="url(#paint63_linear_9_630)" stroke-width="1.8929" stroke-miterlimit="10"/>
<path d="M2192.6 891L1323.5 610.9L937.7 -150.1" stroke="url(#paint64_linear_9_630)" stroke-width="1.875" stroke-miterlimit="10"/>
<path d="M2205.2 874.9L1336.7 594.9L951.1 -165.6" stroke="url(#paint65_linear_9_630)" stroke-width="1.8571" stroke-miterlimit="10"/>
<path d="M2217.8 858.8L1349.8 579L964.5 -181.1" stroke="url(#paint66_linear_9_630)" stroke-width="1.8393" stroke-miterlimit="10"/>
<path d="M2230.5 842.6L1363 563L977.9 -196.6" stroke="url(#paint67_linear_9_630)" stroke-width="1.8214" stroke-miterlimit="10"/>
<path d="M2243.1 826.5L1376.2 547.1L991.3 -212.2" stroke="url(#paint68_linear_9_630)" stroke-width="1.8036" stroke-miterlimit="10"/>
<path d="M2255.7 810.3L1389.4 531.1L1004.7 -227.7" stroke="url(#paint69_linear_9_630)" stroke-width="1.7857" stroke-miterlimit="10"/>
<path d="M2268.3 794.2L1402.5 515.1L1018.1 -243.2" stroke="url(#paint70_linear_9_630)" stroke-width="1.7679" stroke-miterlimit="10"/>
<path d="M2281 778.1L1415.7 499.2L1031.5 -258.8" stroke="url(#paint71_linear_9_630)" stroke-width="1.75" stroke-miterlimit="10"/>
<path d="M2293.6 761.9L1428.9 483.2L1044.9 -274.3" stroke="url(#paint72_linear_9_630)" stroke-width="1.7321" stroke-miterlimit="10"/>
<path d="M2306.2 745.8L1442.1 467.3L1058.3 -289.8" stroke="url(#paint73_linear_9_630)" stroke-width="1.7143" stroke-miterlimit="10"/>
<path d="M2318.8 729.6L1455.2 451.3L1071.7 -305.4" stroke="url(#paint74_linear_9_630)" stroke-width="1.6964" stroke-miterlimit="10"/>
<path d="M2331.5 713.5L1468.4 435.3L1085.1 -320.9" stroke="url(#paint75_linear_9_630)" stroke-width="1.6786" stroke-miterlimit="10"/>
<path d="M2344.1 697.4L1481.6 419.4L1098.5 -336.4" stroke="url(#paint76_linear_9_630)" stroke-width="1.6607" stroke-miterlimit="10"/>
<path d="M2356.7 681.2L1494.8 403.4L1111.9 -351.9" stroke="url(#paint77_linear_9_630)" stroke-width="1.6429" stroke-miterlimit="10"/>
<path d="M2369.3 665.1L1507.9 387.4L1125.3 -367.5" stroke="url(#paint78_linear_9_630)" stroke-width="1.625" stroke-miterlimit="10"/>
<path d="M2382 648.9L1521.1 371.5L1138.7 -383" stroke="url(#paint79_linear_9_630)" stroke-width="1.6071" stroke-miterlimit="10"/>
<path d="M2394.6 632.8L1534.3 355.5L1152.1 -398.5" stroke="url(#paint80_linear_9_630)" stroke-width="1.5893" stroke-miterlimit="10"/>
<path d="M2407.2 616.7L1547.5 339.6L1165.4 -414.1" stroke="url(#paint81_linear_9_630)" stroke-width="1.5714" stroke-miterlimit="10"/>
<path d="M2419.8 600.5L1560.7 323.6L1178.8 -429.6" stroke="url(#paint82_linear_9_630)" stroke-width="1.5536" stroke-miterlimit="10"/>
<path d="M2432.5 584.4L1573.8 307.6L1192.2 -445.1" stroke="url(#paint83_linear_9_630)" stroke-width="1.5357" stroke-miterlimit="10"/>
<path d="M2445.1 568.3L1587 291.7L1205.6 -460.6" stroke="url(#paint84_linear_9_630)" stroke-width="1.5179" stroke-miterlimit="10"/>
<path d="M2457.7 552.1L1600.2 275.7L1219 -476.2" stroke="url(#paint85_linear_9_630)" stroke-width="1.5" stroke-miterlimit="10"/>
<path d="M2470.3 536L1613.4 259.8L1232.4 -491.7" stroke="url(#paint86_linear_9_630)" stroke-width="1.4821" stroke-miterlimit="10"/>
<path d="M2483 519.8L1626.5 243.8L1245.8 -507.2" stroke="url(#paint87_linear_9_630)" stroke-width="1.4643" stroke-miterlimit="10"/>
<path d="M2495.6 503.7L1639.7 227.8L1259.2 -522.8" stroke="url(#paint88_linear_9_630)" stroke-width="1.4464" stroke-miterlimit="10"/>
<path d="M2508.2 487.6L1652.9 211.9L1272.6 -538.3" stroke="url(#paint89_linear_9_630)" stroke-width="1.4286" stroke-miterlimit="10"/>
<path d="M2520.8 471.4L1666.1 195.9L1286 -553.8" stroke="url(#paint90_linear_9_630)" stroke-width="1.4107" stroke-miterlimit="10"/>
<path d="M2533.5 455.3L1679.2 180L1299.4 -569.3" stroke="url(#paint91_linear_9_630)" stroke-width="1.3929" stroke-miterlimit="10"/>
<path d="M2546.1 439.1L1692.4 164L1312.8 -584.9" stroke="url(#paint92_linear_9_630)" stroke-width="1.375" stroke-miterlimit="10"/>
<path d="M2558.7 423L1705.6 148L1326.2 -600.4" stroke="url(#paint93_linear_9_630)" stroke-width="1.3571" stroke-miterlimit="10"/>
<path d="M2571.3 406.9L1718.8 132.1L1339.6 -615.9" stroke="url(#paint94_linear_9_630)" stroke-width="1.3393" stroke-miterlimit="10"/>
<path d="M2584 390.7L1731.9 116.1L1353 -631.5" stroke="url(#paint95_linear_9_630)" stroke-width="1.3214" stroke-miterlimit="10"/>
<path d="M2596.6 374.6L1745.1 100.1L1366.4 -647" stroke="url(#paint96_linear_9_630)" stroke-width="1.3036" stroke-miterlimit="10"/>
<path d="M2609.2 358.4L1758.3 84.2L1379.8 -662.5" stroke="url(#paint97_linear_9_630)" stroke-width="1.2857" stroke-miterlimit="10"/>
<path d="M2621.8 342.3L1771.5 68.2L1393.2 -678" stroke="url(#paint98_linear_9_630)" stroke-width="1.2679" stroke-miterlimit="10"/>
<path d="M2634.5 326.2L1784.6 52.2999L1406.6 -693.6" stroke="url(#paint99_linear_9_630)" stroke-width="1.25" stroke-miterlimit="10"/>
<path d="M2647.1 310L1797.8 36.2999L1420 -709.1" stroke="url(#paint100_linear_9_630)" stroke-width="1.2321" stroke-miterlimit="10"/>
<path d="M2659.7 293.9L1811 20.2999L1433.3 -724.6" stroke="url(#paint101_linear_9_630)" stroke-width="1.2143" stroke-miterlimit="10"/>
<path d="M2672.3 277.8L1824.2 4.40002L1446.7 -740.2" stroke="url(#paint102_linear_9_630)" stroke-width="1.1964" stroke-miterlimit="10"/>
<path d="M2685 261.6L1837.3 -11.6L1460.1 -755.7" stroke="url(#paint103_linear_9_630)" stroke-width="1.1786" stroke-miterlimit="10"/>
<path d="M2697.6 245.5L1850.5 -27.4999L1473.5 -771.2" stroke="url(#paint104_linear_9_630)" stroke-width="1.1607" stroke-miterlimit="10"/>
<path d="M2710.2 229.3L1863.7 -43.4999L1486.9 -786.7" stroke="url(#paint105_linear_9_630)" stroke-width="1.1429" stroke-miterlimit="10"/>
<path d="M2722.8 213.2L1876.9 -59.5001L1500.3 -802.3" stroke="url(#paint106_linear_9_630)" stroke-width="1.125" stroke-miterlimit="10"/>
<path d="M2735.4 197.1L1890 -75.4001L1513.7 -817.8" stroke="url(#paint107_linear_9_630)" stroke-width="1.1071" stroke-miterlimit="10"/>
<path d="M2748.1 180.9L1903.2 -91.4001L1527.1 -833.3" stroke="url(#paint108_linear_9_630)" stroke-width="1.0893" stroke-miterlimit="10"/>
<path d="M2760.7 164.8L1916.4 -107.4L1540.5 -848.9" stroke="url(#paint109_linear_9_630)" stroke-width="1.0714" stroke-miterlimit="10"/>
<path d="M2773.3 148.6L1929.6 -123.3L1553.9 -864.4" stroke="url(#paint110_linear_9_630)" stroke-width="1.0536" stroke-miterlimit="10"/>
<path d="M2785.9 132.5L1942.7 -139.3L1567.3 -879.9" stroke="url(#paint111_linear_9_630)" stroke-width="1.0357" stroke-miterlimit="10"/>
<path d="M2798.6 116.4L1955.9 -155.2L1580.7 -895.4" stroke="url(#paint112_linear_9_630)" stroke-width="1.0179" stroke-miterlimit="10"/>
<path d="M2811.2 100.2L1969.1 -171.2L1594.1 -911" stroke="url(#paint113_linear_9_630)" stroke-miterlimit="10"/>
</g>
<defs>
<linearGradient id="paint0_linear_9_630" x1="681.55" y1="-56.7" x2="681.55" y2="994.1" gradientUnits="userSpaceOnUse">
<stop stop-color="#E7FFFB"/>
<stop offset="1" stop-color="#00FFD1"/>
</linearGradient>
<linearGradient id="paint1_linear_9_630" x1="667.25" y1="-43.2998" x2="667.25" y2="1006.5" gradientUnits="userSpaceOnUse">
<stop stop-color="#E7FFFB"/>
<stop offset="1" stop-color="#00FFD1"/>
</linearGradient>
<linearGradient id="paint2_linear_9_630" x1="652.9" y1="-29.7998" x2="652.9" y2="1019" gradientUnits="userSpaceOnUse">
<stop stop-color="#E7FFFB"/>
<stop offset="1" stop-color="#00FFD1"/>
</linearGradient>
<linearGradient id="paint3_linear_9_630" x1="638.6" y1="-16.3999" x2="638.6" y2="1031.5" gradientUnits="userSpaceOnUse">
<stop stop-color="#E7FFFB"/>
<stop offset="1" stop-color="#00FFD1"/>
</linearGradient>
<linearGradient id="paint4_linear_9_630" x1="624.25" y1="-2.8999" x2="624.25" y2="1044" gradientUnits="userSpaceOnUse">
<stop stop-color="#E7FFFB"/>
<stop offset="1" stop-color="#00FFD1"/>
</linearGradient>
<linearGradient id="paint5_linear_9_630" x1="609.9" y1="10.5" x2="609.9" y2="1056.5" gradientUnits="userSpaceOnUse">
<stop stop-color="#E7FFFB"/>
<stop offset="1" stop-color="#00FFD1"/>
</linearGradient>
<linearGradient id="paint6_linear_9_630" x1="595.55" y1="24" x2="595.55" y2="1069" gradientUnits="userSpaceOnUse">
<stop stop-color="#E7FFFB"/>
<stop offset="1" stop-color="#00FFD1"/>
</linearGradient>
<linearGradient id="paint7_linear_9_630" x1="581.25" y1="37.5" x2="581.25" y2="1081.4" gradientUnits="userSpaceOnUse">
<stop stop-color="#E7FFFB"/>
<stop offset="1" stop-color="#00FFD1"/>
</linearGradient>
<linearGradient id="paint8_linear_9_630" x1="566.9" y1="50.8999" x2="566.9" y2="1093.9" gradientUnits="userSpaceOnUse">
<stop stop-color="#E7FFFB"/>
<stop offset="1" stop-color="#00FFD1"/>
</linearGradient>
<linearGradient id="paint9_linear_9_630" x1="552.6" y1="64.3999" x2="552.6" y2="1106.4" gradientUnits="userSpaceOnUse">
<stop stop-color="#E7FFFB"/>
<stop offset="1" stop-color="#00FFD1"/>
</linearGradient>
<linearGradient id="paint10_linear_9_630" x1="538.25" y1="77.8" x2="538.25" y2="1118.9" gradientUnits="userSpaceOnUse">
<stop stop-color="#E7FFFB"/>
<stop offset="1" stop-color="#00FFD1"/>
</linearGradient>
<linearGradient id="paint11_linear_9_630" x1="523.95" y1="91.3" x2="523.95" y2="1131.4" gradientUnits="userSpaceOnUse">
<stop stop-color="#E7FFFB"/>
<stop offset="1" stop-color="#00FFD1"/>
</linearGradient>
<linearGradient id="paint12_linear_9_630" x1="509.6" y1="104.7" x2="509.6" y2="1143.9" gradientUnits="userSpaceOnUse">
<stop stop-color="#E7FFFB"/>
<stop offset="1" stop-color="#00FFD1"/>
</linearGradient>
<linearGradient id="paint13_linear_9_630" x1="495.3" y1="118.2" x2="495.3" y2="1156.4" gradientUnits="userSpaceOnUse">
<stop stop-color="#E7FFFB"/>
<stop offset="1" stop-color="#00FFD1"/>
</linearGradient>
<linearGradient id="paint14_linear_9_630" x1="480.9" y1="131.7" x2="480.9" y2="1168.8" gradientUnits="userSpaceOnUse">
<stop stop-color="#E7FFFB"/>
<stop offset="1" stop-color="#00FFD1"/>
</linearGradient>
<linearGradient id="paint15_linear_9_630" x1="466.6" y1="145.1" x2="466.6" y2="1181.3" gradientUnits="userSpaceOnUse">
<stop stop-color="#E7FFFB"/>
<stop offset="1" stop-color="#00FFD1"/>
</linearGradient>
<linearGradient id="paint16_linear_9_630" x1="452.25" y1="158.6" x2="452.25" y2="1193.8" gradientUnits="userSpaceOnUse">
<stop stop-color="#E7FFFB"/>
<stop offset="1" stop-color="#00FFD1"/>
</linearGradient>
<linearGradient id="paint17_linear_9_630" x1="437.95" y1="172" x2="437.95" y2="1206.3" gradientUnits="userSpaceOnUse">
<stop stop-color="#E7FFFB"/>
<stop offset="1" stop-color="#00FFD1"/>
</linearGradient>
<linearGradient id="paint18_linear_9_630" x1="423.65" y1="185.5" x2="423.65" y2="1218.8" gradientUnits="userSpaceOnUse">
<stop stop-color="#E7FFFB"/>
<stop offset="1" stop-color="#00FFD1"/>
</linearGradient>
<linearGradient id="paint19_linear_9_630" x1="409.3" y1="198.9" x2="409.3" y2="1231.3" gradientUnits="userSpaceOnUse">
<stop stop-color="#E7FFFB"/>
<stop offset="1" stop-color="#00FFD1"/>
</linearGradient>
<linearGradient id="paint20_linear_9_630" x1="395" y1="212.4" x2="395" y2="1243.8" gradientUnits="userSpaceOnUse">
<stop stop-color="#E7FFFB"/>
<stop offset="1" stop-color="#00FFD1"/>
</linearGradient>
<linearGradient id="paint21_linear_9_630" x1="380.65" y1="225.9" x2="380.65" y2="1256.2" gradientUnits="userSpaceOnUse">
<stop stop-color="#E7FFFB"/>
<stop offset="1" stop-color="#00FFD1"/>
</linearGradient>
<linearGradient id="paint22_linear_9_630" x1="366.35" y1="239.3" x2="366.35" y2="1268.7" gradientUnits="userSpaceOnUse">
<stop stop-color="#E7FFFB"/>
<stop offset="1" stop-color="#00FFD1"/>
</linearGradient>
<linearGradient id="paint23_linear_9_630" x1="351.95" y1="252.8" x2="351.95" y2="1281.2" gradientUnits="userSpaceOnUse">
<stop stop-color="#E7FFFB"/>
<stop offset="1" stop-color="#00FFD1"/>
</linearGradient>
<linearGradient id="paint24_linear_9_630" x1="337.65" y1="266.2" x2="337.65" y2="1293.7" gradientUnits="userSpaceOnUse">
<stop stop-color="#E7FFFB"/>
<stop offset="1" stop-color="#00FFD1"/>
</linearGradient>
<linearGradient id="paint25_linear_9_630" x1="323.3" y1="279.7" x2="323.3" y2="1306.2" gradientUnits="userSpaceOnUse">
<stop stop-color="#E7FFFB"/>
<stop offset="1" stop-color="#00FFD1"/>
</linearGradient>
<linearGradient id="paint26_linear_9_630" x1="309" y1="293.1" x2="309" y2="1318.7" gradientUnits="userSpaceOnUse">
<stop stop-color="#E7FFFB"/>
<stop offset="1" stop-color="#00FFD1"/>
</linearGradient>
<linearGradient id="paint27_linear_9_630" x1="294.65" y1="306.6" x2="294.65" y2="1331.1" gradientUnits="userSpaceOnUse">
<stop stop-color="#E7FFFB"/>
<stop offset="1" stop-color="#00FFD1"/>
</linearGradient>
<linearGradient id="paint28_linear_9_630" x1="280.35" y1="320.1" x2="280.35" y2="1343.6" gradientUnits="userSpaceOnUse">
<stop stop-color="#E7FFFB"/>
<stop offset="1" stop-color="#00FFD1"/>
</linearGradient>
<linearGradient id="paint29_linear_9_630" x1="266" y1="333.5" x2="266" y2="1356.1" gradientUnits="userSpaceOnUse">
<stop stop-color="#E7FFFB"/>
<stop offset="1" stop-color="#00FFD1"/>
</linearGradient>
<linearGradient id="paint30_linear_9_630" x1="251.7" y1="347" x2="251.7" y2="1368.6" gradientUnits="userSpaceOnUse">
<stop stop-color="#E7FFFB"/>
<stop offset="1" stop-color="#00FFD1"/>
</linearGradient>
<linearGradient id="paint31_linear_9_630" x1="237.35" y1="360.4" x2="237.35" y2="1381.1" gradientUnits="userSpaceOnUse">
<stop stop-color="#E7FFFB"/>
<stop offset="1" stop-color="#00FFD1"/>
</linearGradient>
<linearGradient id="paint32_linear_9_630" x1="223" y1="373.9" x2="223" y2="1393.6" gradientUnits="userSpaceOnUse">
<stop stop-color="#E7FFFB"/>
<stop offset="1" stop-color="#00FFD1"/>
</linearGradient>
<linearGradient id="paint33_linear_9_630" x1="208.65" y1="387.3" x2="208.65" y2="1406.1" gradientUnits="userSpaceOnUse">
<stop stop-color="#E7FFFB"/>
<stop offset="1" stop-color="#00FFD1"/>
</linearGradient>
<linearGradient id="paint34_linear_9_630" x1="194.35" y1="400.8" x2="194.35" y2="1418.5" gradientUnits="userSpaceOnUse">
<stop stop-color="#E7FFFB"/>
<stop offset="1" stop-color="#00FFD1"/>
</linearGradient>
<linearGradient id="paint35_linear_9_630" x1="180.05" y1="414.3" x2="180.05" y2="1431" gradientUnits="userSpaceOnUse">
<stop stop-color="#E7FFFB"/>
<stop offset="1" stop-color="#00FFD1"/>
</linearGradient>
<linearGradient id="paint36_linear_9_630" x1="165.7" y1="427.7" x2="165.7" y2="1443.5" gradientUnits="userSpaceOnUse">
<stop stop-color="#E7FFFB"/>
<stop offset="1" stop-color="#00FFD1"/>
</linearGradient>
<linearGradient id="paint37_linear_9_630" x1="151.4" y1="441.2" x2="151.4" y2="1456" gradientUnits="userSpaceOnUse">
<stop stop-color="#E7FFFB"/>
<stop offset="1" stop-color="#00FFD1"/>
</linearGradient>
<linearGradient id="paint38_linear_9_630" x1="137.05" y1="454.6" x2="137.05" y2="1468.5" gradientUnits="userSpaceOnUse">
<stop stop-color="#E7FFFB"/>
<stop offset="1" stop-color="#00FFD1"/>
</linearGradient>
<linearGradient id="paint39_linear_9_630" x1="122.75" y1="468.1" x2="122.75" y2="1481" gradientUnits="userSpaceOnUse">
<stop stop-color="#E7FFFB"/>
<stop offset="1" stop-color="#00FFD1"/>
</linearGradient>
<linearGradient id="paint40_linear_9_630" x1="108.4" y1="481.5" x2="108.4" y2="1493.4" gradientUnits="userSpaceOnUse">
<stop stop-color="#E7FFFB"/>
<stop offset="1" stop-color="#00FFD1"/>
</linearGradient>
<linearGradient id="paint41_linear_9_630" x1="94.05" y1="495" x2="94.05" y2="1505.9" gradientUnits="userSpaceOnUse">
<stop stop-color="#E7FFFB"/>
<stop offset="1" stop-color="#00FFD1"/>
</linearGradient>
<linearGradient id="paint42_linear_9_630" x1="79.7" y1="508.5" x2="79.7" y2="1518.4" gradientUnits="userSpaceOnUse">
<stop stop-color="#E7FFFB"/>
<stop offset="1" stop-color="#00FFD1"/>
</linearGradient>
<linearGradient id="paint43_linear_9_630" x1="65.3999" y1="521.9" x2="65.3999" y2="1530.9" gradientUnits="userSpaceOnUse">
<stop stop-color="#E7FFFB"/>
<stop offset="1" stop-color="#00FFD1"/>
</linearGradient>
<linearGradient id="paint44_linear_9_630" x1="51.05" y1="535.4" x2="51.05" y2="1543.4" gradientUnits="userSpaceOnUse">
<stop stop-color="#E7FFFB"/>
<stop offset="1" stop-color="#00FFD1"/>
</linearGradient>
<linearGradient id="paint45_linear_9_630" x1="36.7499" y1="548.8" x2="36.7499" y2="1555.9" gradientUnits="userSpaceOnUse">
<stop stop-color="#E7FFFB"/>
<stop offset="1" stop-color="#00FFD1"/>
</linearGradient>
<linearGradient id="paint46_linear_9_630" x1="22.4001" y1="562.3" x2="22.4001" y2="1568.4" gradientUnits="userSpaceOnUse">
<stop stop-color="#E7FFFB"/>
<stop offset="1" stop-color="#00FFD1"/>
</linearGradient>
<linearGradient id="paint47_linear_9_630" x1="8.10004" y1="575.7" x2="8.10004" y2="1580.8" gradientUnits="userSpaceOnUse">
<stop stop-color="#E7FFFB"/>
<stop offset="1" stop-color="#00FFD1"/>
</linearGradient>
<linearGradient id="paint48_linear_9_630" x1="-6.25006" y1="589.2" x2="-6.25006" y2="1593.3" gradientUnits="userSpaceOnUse">
<stop stop-color="#E7FFFB"/>
<stop offset="1" stop-color="#00FFD1"/>
</linearGradient>
<linearGradient id="paint49_linear_9_630" x1="-20.5499" y1="602.7" x2="-20.5499" y2="1605.8" gradientUnits="userSpaceOnUse">
<stop stop-color="#E7FFFB"/>
<stop offset="1" stop-color="#00FFD1"/>
</linearGradient>
<linearGradient id="paint50_linear_9_630" x1="-34.95" y1="616.1" x2="-34.95" y2="1618.3" gradientUnits="userSpaceOnUse">
<stop stop-color="#E7FFFB"/>
<stop offset="1" stop-color="#00FFD1"/>
</linearGradient>
<linearGradient id="paint51_linear_9_630" x1="-49.25" y1="629.6" x2="-49.25" y2="1630.8" gradientUnits="userSpaceOnUse">
<stop stop-color="#E7FFFB"/>
<stop offset="1" stop-color="#00FFD1"/>
</linearGradient>
<linearGradient id="paint52_linear_9_630" x1="-63.6001" y1="643" x2="-63.6001" y2="1643.3" gradientUnits="userSpaceOnUse">
<stop stop-color="#E7FFFB"/>
<stop offset="1" stop-color="#00FFD1"/>
</linearGradient>
<linearGradient id="paint53_linear_9_630" x1="-77.9" y1="656.5" x2="-77.9" y2="1655.8" gradientUnits="userSpaceOnUse">
<stop stop-color="#E7FFFB"/>
<stop offset="1" stop-color="#00FFD1"/>
</linearGradient>
<linearGradient id="paint54_linear_9_630" x1="-92.2001" y1="669.9" x2="-92.2001" y2="1668.2" gradientUnits="userSpaceOnUse">
<stop stop-color="#E7FFFB"/>
<stop offset="1" stop-color="#00FFD1"/>
</linearGradient>
<linearGradient id="paint55_linear_9_630" x1="-106.55" y1="683.4" x2="-106.55" y2="1680.7" gradientUnits="userSpaceOnUse">
<stop stop-color="#E7FFFB"/>
<stop offset="1" stop-color="#00FFD1"/>
</linearGradient>
<linearGradient id="paint56_linear_9_630" x1="-120.85" y1="696.9" x2="-120.85" y2="1693.2" gradientUnits="userSpaceOnUse">
<stop stop-color="#E7FFFB"/>
<stop offset="1" stop-color="#00FFD1"/>
</linearGradient>
<linearGradient id="paint57_linear_9_630" x1="1474.1" y1="-41.3999" x2="1474.1" y2="1004" gradientUnits="userSpaceOnUse">
<stop stop-color="#E7FFFB"/>
<stop offset="1" stop-color="#00FFD1"/>
</linearGradient>
<linearGradient id="paint58_linear_9_630" x1="1487.1" y1="-56.8999" x2="1487.1" y2="987.9" gradientUnits="userSpaceOnUse">
<stop stop-color="#E7FFFB"/>
<stop offset="1" stop-color="#00FFD1"/>
</linearGradient>
<linearGradient id="paint59_linear_9_630" x1="1500.15" y1="-72.3999" x2="1500.15" y2="971.7" gradientUnits="userSpaceOnUse">
<stop stop-color="#E7FFFB"/>
<stop offset="1" stop-color="#00FFD1"/>
</linearGradient>
<linearGradient id="paint60_linear_9_630" x1="1513.15" y1="-87.8999" x2="1513.15" y2="955.6" gradientUnits="userSpaceOnUse">
<stop stop-color="#E7FFFB"/>
<stop offset="1" stop-color="#00FFD1"/>
</linearGradient>
<linearGradient id="paint61_linear_9_630" x1="1526.15" y1="-103.5" x2="1526.15" y2="939.4" gradientUnits="userSpaceOnUse">
<stop stop-color="#E7FFFB"/>
<stop offset="1" stop-color="#00FFD1"/>
</linearGradient>
<linearGradient id="paint62_linear_9_630" x1="1539.1" y1="-119" x2="1539.1" y2="923.3" gradientUnits="userSpaceOnUse">
<stop stop-color="#E7FFFB"/>
<stop offset="1" stop-color="#00FFD1"/>
</linearGradient>
<linearGradient id="paint63_linear_9_630" x1="1552.15" y1="-134.5" x2="1552.15" y2="907.2" gradientUnits="userSpaceOnUse">
<stop stop-color="#E7FFFB"/>
<stop offset="1" stop-color="#00FFD1"/>
</linearGradient>
<linearGradient id="paint64_linear_9_630" x1="1565.15" y1="-150.1" x2="1565.15" y2="891" gradientUnits="userSpaceOnUse">
<stop stop-color="#E7FFFB"/>
<stop offset="1" stop-color="#00FFD1"/>
</linearGradient>
<linearGradient id="paint65_linear_9_630" x1="1578.15" y1="-165.6" x2="1578.15" y2="874.9" gradientUnits="userSpaceOnUse">
<stop stop-color="#E7FFFB"/>
<stop offset="1" stop-color="#00FFD1"/>
</linearGradient>
<linearGradient id="paint66_linear_9_630" x1="1591.15" y1="-181.1" x2="1591.15" y2="858.8" gradientUnits="userSpaceOnUse">
<stop stop-color="#E7FFFB"/>
<stop offset="1" stop-color="#00FFD1"/>
</linearGradient>
<linearGradient id="paint67_linear_9_630" x1="1604.2" y1="-196.6" x2="1604.2" y2="842.6" gradientUnits="userSpaceOnUse">
<stop stop-color="#E7FFFB"/>
<stop offset="1" stop-color="#00FFD1"/>
</linearGradient>
<linearGradient id="paint68_linear_9_630" x1="1617.2" y1="-212.2" x2="1617.2" y2="826.5" gradientUnits="userSpaceOnUse">
<stop stop-color="#E7FFFB"/>
<stop offset="1" stop-color="#00FFD1"/>
</linearGradient>
<linearGradient id="paint69_linear_9_630" x1="1630.2" y1="-227.7" x2="1630.2" y2="810.3" gradientUnits="userSpaceOnUse">
<stop stop-color="#E7FFFB"/>
<stop offset="1" stop-color="#00FFD1"/>
</linearGradient>
<linearGradient id="paint70_linear_9_630" x1="1643.2" y1="-243.2" x2="1643.2" y2="794.2" gradientUnits="userSpaceOnUse">
<stop stop-color="#E7FFFB"/>
<stop offset="1" stop-color="#00FFD1"/>
</linearGradient>
<linearGradient id="paint71_linear_9_630" x1="1656.25" y1="-258.8" x2="1656.25" y2="778.1" gradientUnits="userSpaceOnUse">
<stop stop-color="#E7FFFB"/>
<stop offset="1" stop-color="#00FFD1"/>
</linearGradient>
<linearGradient id="paint72_linear_9_630" x1="1669.25" y1="-274.3" x2="1669.25" y2="761.9" gradientUnits="userSpaceOnUse">
<stop stop-color="#E7FFFB"/>
<stop offset="1" stop-color="#00FFD1"/>
</linearGradient>
<linearGradient id="paint73_linear_9_630" x1="1682.25" y1="-289.8" x2="1682.25" y2="745.8" gradientUnits="userSpaceOnUse">
<stop stop-color="#E7FFFB"/>
<stop offset="1" stop-color="#00FFD1"/>
</linearGradient>
<linearGradient id="paint74_linear_9_630" x1="1695.25" y1="-305.4" x2="1695.25" y2="729.6" gradientUnits="userSpaceOnUse">
<stop stop-color="#E7FFFB"/>
<stop offset="1" stop-color="#00FFD1"/>
</linearGradient>
<linearGradient id="paint75_linear_9_630" x1="1708.3" y1="-320.9" x2="1708.3" y2="713.5" gradientUnits="userSpaceOnUse">
<stop stop-color="#E7FFFB"/>
<stop offset="1" stop-color="#00FFD1"/>
</linearGradient>
<linearGradient id="paint76_linear_9_630" x1="1721.3" y1="-336.4" x2="1721.3" y2="697.4" gradientUnits="userSpaceOnUse">
<stop stop-color="#E7FFFB"/>
<stop offset="1" stop-color="#00FFD1"/>
</linearGradient>
<linearGradient id="paint77_linear_9_630" x1="1734.3" y1="-351.9" x2="1734.3" y2="681.2" gradientUnits="userSpaceOnUse">
<stop stop-color="#E7FFFB"/>
<stop offset="1" stop-color="#00FFD1"/>
</linearGradient>
<linearGradient id="paint78_linear_9_630" x1="1747.3" y1="-367.5" x2="1747.3" y2="665.1" gradientUnits="userSpaceOnUse">
<stop stop-color="#E7FFFB"/>
<stop offset="1" stop-color="#00FFD1"/>
</linearGradient>
<linearGradient id="paint79_linear_9_630" x1="1760.35" y1="-383" x2="1760.35" y2="648.9" gradientUnits="userSpaceOnUse">
<stop stop-color="#E7FFFB"/>
<stop offset="1" stop-color="#00FFD1"/>
</linearGradient>
<linearGradient id="paint80_linear_9_630" x1="1773.35" y1="-398.5" x2="1773.35" y2="632.8" gradientUnits="userSpaceOnUse">
<stop stop-color="#E7FFFB"/>
<stop offset="1" stop-color="#00FFD1"/>
</linearGradient>
<linearGradient id="paint81_linear_9_630" x1="1786.3" y1="-414.1" x2="1786.3" y2="616.7" gradientUnits="userSpaceOnUse">
<stop stop-color="#E7FFFB"/>
<stop offset="1" stop-color="#00FFD1"/>
</linearGradient>
<linearGradient id="paint82_linear_9_630" x1="1799.3" y1="-429.6" x2="1799.3" y2="600.5" gradientUnits="userSpaceOnUse">
<stop stop-color="#E7FFFB"/>
<stop offset="1" stop-color="#00FFD1"/>
</linearGradient>
<linearGradient id="paint83_linear_9_630" x1="1812.35" y1="-445.1" x2="1812.35" y2="584.4" gradientUnits="userSpaceOnUse">
<stop stop-color="#E7FFFB"/>
<stop offset="1" stop-color="#00FFD1"/>
</linearGradient>
<linearGradient id="paint84_linear_9_630" x1="1825.35" y1="-460.6" x2="1825.35" y2="568.3" gradientUnits="userSpaceOnUse">
<stop stop-color="#E7FFFB"/>
<stop offset="1" stop-color="#00FFD1"/>
</linearGradient>
<linearGradient id="paint85_linear_9_630" x1="1838.35" y1="-476.2" x2="1838.35" y2="552.1" gradientUnits="userSpaceOnUse">
<stop stop-color="#E7FFFB"/>
<stop offset="1" stop-color="#00FFD1"/>
</linearGradient>
<linearGradient id="paint86_linear_9_630" x1="1851.35" y1="-491.7" x2="1851.35" y2="536" gradientUnits="userSpaceOnUse">
<stop stop-color="#E7FFFB"/>
<stop offset="1" stop-color="#00FFD1"/>
</linearGradient>
<linearGradient id="paint87_linear_9_630" x1="1864.4" y1="-507.2" x2="1864.4" y2="519.8" gradientUnits="userSpaceOnUse">
<stop stop-color="#E7FFFB"/>
<stop offset="1" stop-color="#00FFD1"/>
</linearGradient>
<linearGradient id="paint88_linear_9_630" x1="1877.4" y1="-522.8" x2="1877.4" y2="503.7" gradientUnits="userSpaceOnUse">
<stop stop-color="#E7FFFB"/>
<stop offset="1" stop-color="#00FFD1"/>
</linearGradient>
<linearGradient id="paint89_linear_9_630" x1="1890.4" y1="-538.3" x2="1890.4" y2="487.6" gradientUnits="userSpaceOnUse">
<stop stop-color="#E7FFFB"/>
<stop offset="1" stop-color="#00FFD1"/>
</linearGradient>
<linearGradient id="paint90_linear_9_630" x1="1903.4" y1="-553.8" x2="1903.4" y2="471.4" gradientUnits="userSpaceOnUse">
<stop stop-color="#E7FFFB"/>
<stop offset="1" stop-color="#00FFD1"/>
</linearGradient>
<linearGradient id="paint91_linear_9_630" x1="1916.45" y1="-569.3" x2="1916.45" y2="455.3" gradientUnits="userSpaceOnUse">
<stop stop-color="#E7FFFB"/>
<stop offset="1" stop-color="#00FFD1"/>
</linearGradient>
<linearGradient id="paint92_linear_9_630" x1="1929.45" y1="-584.9" x2="1929.45" y2="439.1" gradientUnits="userSpaceOnUse">
<stop stop-color="#E7FFFB"/>
<stop offset="1" stop-color="#00FFD1"/>
</linearGradient>
<linearGradient id="paint93_linear_9_630" x1="1942.45" y1="-600.4" x2="1942.45" y2="423" gradientUnits="userSpaceOnUse">
<stop stop-color="#E7FFFB"/>
<stop offset="1" stop-color="#00FFD1"/>
</linearGradient>
<linearGradient id="paint94_linear_9_630" x1="1955.45" y1="-615.9" x2="1955.45" y2="406.9" gradientUnits="userSpaceOnUse">
<stop stop-color="#E7FFFB"/>
<stop offset="1" stop-color="#00FFD1"/>
</linearGradient>
<linearGradient id="paint95_linear_9_630" x1="1968.5" y1="-631.5" x2="1968.5" y2="390.7" gradientUnits="userSpaceOnUse">
<stop stop-color="#E7FFFB"/>
<stop offset="1" stop-color="#00FFD1"/>
</linearGradient>
<linearGradient id="paint96_linear_9_630" x1="1981.5" y1="-647" x2="1981.5" y2="374.6" gradientUnits="userSpaceOnUse">
<stop stop-color="#E7FFFB"/>
<stop offset="1" stop-color="#00FFD1"/>
</linearGradient>
<linearGradient id="paint97_linear_9_630" x1="1994.5" y1="-662.5" x2="1994.5" y2="358.4" gradientUnits="userSpaceOnUse">
<stop stop-color="#E7FFFB"/>
<stop offset="1" stop-color="#00FFD1"/>
</linearGradient>
<linearGradient id="paint98_linear_9_630" x1="2007.5" y1="-678" x2="2007.5" y2="342.3" gradientUnits="userSpaceOnUse">
<stop stop-color="#E7FFFB"/>
<stop offset="1" stop-color="#00FFD1"/>
</linearGradient>
<linearGradient id="paint99_linear_9_630" x1="2020.55" y1="-693.6" x2="2020.55" y2="326.2" gradientUnits="userSpaceOnUse">
<stop stop-color="#E7FFFB"/>
<stop offset="1" stop-color="#00FFD1"/>
</linearGradient>
<linearGradient id="paint100_linear_9_630" x1="2033.55" y1="-709.1" x2="2033.55" y2="310" gradientUnits="userSpaceOnUse">
<stop stop-color="#E7FFFB"/>
<stop offset="1" stop-color="#00FFD1"/>
</linearGradient>
<linearGradient id="paint101_linear_9_630" x1="2046.5" y1="-724.6" x2="2046.5" y2="293.9" gradientUnits="userSpaceOnUse">
<stop stop-color="#E7FFFB"/>
<stop offset="1" stop-color="#00FFD1"/>
</linearGradient>
<linearGradient id="paint102_linear_9_630" x1="2059.5" y1="-740.2" x2="2059.5" y2="277.8" gradientUnits="userSpaceOnUse">
<stop stop-color="#E7FFFB"/>
<stop offset="1" stop-color="#00FFD1"/>
</linearGradient>
<linearGradient id="paint103_linear_9_630" x1="2072.55" y1="-755.7" x2="2072.55" y2="261.6" gradientUnits="userSpaceOnUse">
<stop stop-color="#E7FFFB"/>
<stop offset="1" stop-color="#00FFD1"/>
</linearGradient>
<linearGradient id="paint104_linear_9_630" x1="2085.55" y1="-771.2" x2="2085.55" y2="245.5" gradientUnits="userSpaceOnUse">
<stop stop-color="#E7FFFB"/>
<stop offset="1" stop-color="#00FFD1"/>
</linearGradient>
<linearGradient id="paint105_linear_9_630" x1="2098.55" y1="-786.7" x2="2098.55" y2="229.3" gradientUnits="userSpaceOnUse">
<stop stop-color="#E7FFFB"/>
<stop offset="1" stop-color="#00FFD1"/>
</linearGradient>
<linearGradient id="paint106_linear_9_630" x1="2111.55" y1="-802.3" x2="2111.55" y2="213.2" gradientUnits="userSpaceOnUse">
<stop stop-color="#E7FFFB"/>
<stop offset="1" stop-color="#00FFD1"/>
</linearGradient>
<linearGradient id="paint107_linear_9_630" x1="2124.55" y1="-817.8" x2="2124.55" y2="197.1" gradientUnits="userSpaceOnUse">
<stop stop-color="#E7FFFB"/>
<stop offset="1" stop-color="#00FFD1"/>
</linearGradient>
<linearGradient id="paint108_linear_9_630" x1="2137.6" y1="-833.3" x2="2137.6" y2="180.9" gradientUnits="userSpaceOnUse">
<stop stop-color="#E7FFFB"/>
<stop offset="1" stop-color="#00FFD1"/>
</linearGradient>
<linearGradient id="paint109_linear_9_630" x1="2150.6" y1="-848.9" x2="2150.6" y2="164.8" gradientUnits="userSpaceOnUse">
<stop stop-color="#E7FFFB"/>
<stop offset="1" stop-color="#00FFD1"/>
</linearGradient>
<linearGradient id="paint110_linear_9_630" x1="2163.6" y1="-864.4" x2="2163.6" y2="148.6" gradientUnits="userSpaceOnUse">
<stop stop-color="#E7FFFB"/>
<stop offset="1" stop-color="#00FFD1"/>
</linearGradient>
<linearGradient id="paint111_linear_9_630" x1="2176.6" y1="-879.9" x2="2176.6" y2="132.5" gradientUnits="userSpaceOnUse">
<stop stop-color="#E7FFFB"/>
<stop offset="1" stop-color="#00FFD1"/>
</linearGradient>
<linearGradient id="paint112_linear_9_630" x1="2189.65" y1="-895.4" x2="2189.65" y2="116.4" gradientUnits="userSpaceOnUse">
<stop stop-color="#E7FFFB"/>
<stop offset="1" stop-color="#00FFD1"/>
</linearGradient>
<linearGradient id="paint113_linear_9_630" x1="2202.65" y1="-911" x2="2202.65" y2="100.2" gradientUnits="userSpaceOnUse">
<stop stop-color="#E7FFFB"/>
<stop offset="1" stop-color="#00FFD1"/>
</linearGradient>
</defs>
</svg>
