<svg viewBox="0 0 74 74" fill="none" xmlns="http://www.w3.org/2000/svg">
<path d="M58.5833 9.25H46.25C44.6145 9.25 43.046 9.8997 41.8895 11.0562C40.733 12.2126 40.0833 13.7812 40.0833 15.4167V52.4167C40.0833 55.6877 41.3827 58.8247 43.6957 61.1376C46.0086 63.4506 49.1456 64.75 52.4166 64.75C55.6877 64.75 58.8247 63.4506 61.1376 61.1376C63.4506 58.8247 64.75 55.6877 64.75 52.4167V15.4167C64.75 13.7812 64.1003 12.2126 62.9438 11.0562C61.7873 9.8997 60.2188 9.25 58.5833 9.25Z" stroke="black" stroke-width="4.625" stroke-linecap="round" stroke-linejoin="round"/>
<path d="M40.0833 22.6625L33.9167 16.4958C32.7602 15.3398 31.192 14.6903 29.5568 14.6903C27.9217 14.6903 26.3534 15.3398 25.197 16.4958L16.4773 25.2155C15.3213 26.3719 14.6718 27.9401 14.6718 29.5753C14.6718 31.2105 15.3213 32.7787 16.4773 33.9352L44.2273 61.6852" stroke="black" stroke-width="4.625" stroke-linecap="round" stroke-linejoin="round"/>
<path d="M22.5083 40.0833H15.4167C13.7812 40.0833 12.2126 40.733 11.0562 41.8895C9.8997 43.046 9.25 44.6145 9.25 46.25V58.5833C9.25 60.2188 9.8997 61.7874 11.0562 62.9438C12.2126 64.1003 13.7812 64.75 15.4167 64.75H52.4167" stroke="black" stroke-width="4.625" stroke-linecap="round" stroke-linejoin="round"/>
<path d="M52.4167 52.4167V52.4475" stroke="black" stroke-width="4.625" stroke-linecap="round" stroke-linejoin="round"/>
</svg>