<svg viewBox="0 0 86 86" fill="none" xmlns="http://www.w3.org/2000/svg">
<path d="M44.5098 48.6346C47.6217 47.8007 49.4684 44.6021 48.6346 41.4902C47.8007 38.3783 44.6021 36.5316 41.4902 37.3654C38.3783 38.1993 36.5316 41.3979 37.3654 44.5098C38.1993 47.6217 41.3979 49.4684 44.5098 48.6346Z" stroke="black" stroke-width="4.375" stroke-linecap="round" stroke-linejoin="round"/>
<path d="M35.7816 55.5026L33.7192 59.0748M17.6444 49.794L28.9135 46.7744L17.6444 49.794ZM36.206 17.6444L39.2255 28.9136L36.206 17.6444ZM57.0864 39.2256L68.3555 36.206L57.0864 39.2256ZM46.7744 57.0864L49.794 68.3556L46.7744 57.0864ZM26.9252 33.7192L30.4974 35.7816L26.9252 33.7192ZM52.2807 26.9252L50.2183 30.4974L52.2807 26.9252ZM55.5026 50.2184L59.0747 52.2808L55.5026 50.2184Z" stroke="black" stroke-width="4.375" stroke-linecap="round" stroke-linejoin="round"/>
</svg>