<svg  viewBox="0 0 218 50" fill="none" xmlns="http://www.w3.org/2000/svg">
<circle cx="25" cy="25" r="25" fill="#00FFB2"/>
<mask id="mask0_0_1" style="mask-type:alpha" maskUnits="userSpaceOnUse" x="0" y="0" width="50" height="50">
<circle cx="25" cy="25" r="25" fill="#00FFD1"/>
</mask>
<g mask="url(#mask0_0_1)">
<path fill-rule="evenodd" clip-rule="evenodd" d="M30.6667 9H0V14.3333H30.6667H30.6667C32.8758 14.3333 34.6667 16.1242 34.6667 18.3333C34.6667 20.5425 32.8758 22.3333 30.6667 22.3333L0 22.3333V27.6667H30.6667V27.6667H30.6667C32.8758 27.6667 34.6667 29.4576 34.6667 31.6667C34.6667 33.8759 32.8758 35.6667 30.6667 35.6667H30.6667V35.6667H0V41H30.6667C35.8213 41 40 36.8213 40 31.6667C40 29.0551 38.9274 26.694 37.1986 25C38.9274 23.306 40 20.9449 40 18.3333C40 13.1787 35.8213 9 30.6667 9Z" fill="#303844"/>
</g>
<path d="M62 6.24V8.856H65.552V23.04H68.672V6.24H62Z" fill="#303844"/>
<path d="M80.9806 23.28C83.7406 23.28 86.0926 22.296 87.6526 20.472L85.6366 18.552C84.4126 19.896 82.9006 20.544 81.1486 20.544C77.6686 20.544 75.1486 18.096 75.1486 14.64C75.1486 11.184 77.6686 8.736 81.1486 8.736C82.9006 8.736 84.4126 9.384 85.6366 10.704L87.6526 8.808C86.0926 6.984 83.7406 6 81.0046 6C75.8446 6 72.0046 9.624 72.0046 14.64C72.0046 19.656 75.8446 23.28 80.9806 23.28Z" fill="#303844"/>
<path d="M97.3949 23.04H104.955C109.203 23.04 111.603 21.168 111.603 17.832C111.603 14.664 109.467 12.936 105.435 12.936H100.467V8.808H110.475V6.24H97.3949V23.04ZM100.467 20.64V15.336H104.787C107.235 15.336 108.459 16.176 108.459 17.928C108.459 19.704 107.187 20.64 104.787 20.64H100.467Z" fill="#303844"/>
<path d="M115.043 23.04H117.947L126.971 11.136V23.04H130.043V6.24H127.139L118.115 18.168V6.24H115.043V23.04Z" fill="#303844"/>
<path d="M146.946 6.24H132.738V8.88H138.282V23.04H141.378V8.88H146.946V6.24Z" fill="#303844"/>
<path d="M156.549 6.24H149.637V23.04H152.757V18.192H156.549C160.965 18.192 163.701 15.912 163.701 12.216C163.701 8.496 160.965 6.24 156.549 6.24ZM156.405 15.552H152.757V8.88H156.405C159.141 8.88 160.557 10.104 160.557 12.216C160.557 14.328 159.141 15.552 156.405 15.552Z" fill="#303844"/>
<path d="M166.676 23.04H169.58L178.604 11.136V23.04H181.676V6.24H178.772L169.748 18.168V6.24H166.676V23.04Z" fill="#303844"/>
<path d="M197.499 23.04H201.027L195.075 14.376L200.811 6.24H197.499L192.675 13.272H189.459V6.24H186.387V23.04H189.459V15.96H192.579L197.499 23.04Z" fill="#303844"/>
<path d="M210.826 23.28C213.585 23.28 215.938 22.296 217.497 20.472L215.482 18.552C214.258 19.896 212.745 20.544 210.993 20.544C207.514 20.544 204.993 18.096 204.993 14.64C204.993 11.184 207.514 8.736 210.993 8.736C212.745 8.736 214.258 9.384 215.482 10.704L217.497 8.808C215.938 6.984 213.585 6 210.85 6C205.689 6 201.85 9.624 201.85 14.64C201.85 19.656 205.689 23.28 210.826 23.28Z" fill="#303844"/>
<path d="M67.984 32.84H63.376V44.04H65.456V40.808H67.984C70.928 40.808 72.752 39.288 72.752 36.824C72.752 34.344 70.928 32.84 67.984 32.84ZM67.888 39.048H65.456V34.6H67.888C69.712 34.6 70.656 35.416 70.656 36.824C70.656 38.232 69.712 39.048 67.888 39.048Z" fill="#626262"/>
<path d="M82.7013 44.04H84.8773L79.8213 32.84H77.7732L72.7332 44.04H74.8772L75.9812 41.448H81.5813L82.7013 44.04ZM76.6853 39.816L78.7812 34.92L80.8933 39.816H76.6853Z" fill="#626262"/>
<path d="M92.4827 38.2C93.5228 37.768 94.1628 36.904 94.1628 35.784C94.1628 33.8 92.0347 32.632 89.5707 32.632C88.3228 32.632 86.9948 32.92 85.8108 33.56L86.4667 35.24C87.4427 34.664 88.5628 34.392 89.5228 34.392C90.9308 34.392 92.0508 34.968 92.0508 36.04C92.0508 36.92 91.3147 37.464 90.0667 37.464H87.6187V39.096H90.2267C91.6348 39.096 92.5147 39.592 92.5147 40.6C92.5147 41.8 91.1707 42.456 89.5707 42.456C88.4347 42.456 87.1707 42.12 86.1628 41.432L85.4907 42.952C86.8027 43.8 88.3708 44.2 89.8267 44.2C92.3867 44.2 94.6268 42.984 94.6268 40.904C94.6268 39.608 93.8107 38.616 92.4827 38.2Z" fill="#626262"/>
<path d="M101.593 32.84H96.9854V44.04H99.0654V40.808H101.593C104.537 40.808 106.361 39.288 106.361 36.824C106.361 34.344 104.537 32.84 101.593 32.84ZM101.497 39.048H99.0654V34.6H101.497C103.321 34.6 104.265 35.416 104.265 36.824C104.265 38.232 103.321 39.048 101.497 39.048Z" fill="#626262"/>
<path d="M116.311 44.04H118.487L113.431 32.84H111.383L106.343 44.04H108.487L109.591 41.448H115.191L116.311 44.04ZM110.295 39.816L112.391 34.92L114.503 39.816H110.295Z" fill="#626262"/>
<path d="M120.22 44.04H125.26C128.092 44.04 129.692 42.792 129.692 40.568C129.692 38.456 128.268 37.304 125.58 37.304H122.268V34.552H128.94V32.84H120.22V44.04ZM122.268 42.44V38.904H125.148C126.78 38.904 127.596 39.464 127.596 40.632C127.596 41.816 126.748 42.44 125.148 42.44H122.268Z" fill="#626262"/>
<path d="M137.154 44.2C140.626 44.2 143.186 41.768 143.186 38.44C143.186 35.112 140.626 32.68 137.154 32.68C133.682 32.68 131.122 35.128 131.122 38.44C131.122 41.752 133.682 44.2 137.154 44.2ZM137.154 42.376C134.898 42.376 133.218 40.728 133.218 38.44C133.218 36.152 134.898 34.504 137.154 34.504C139.41 34.504 141.09 36.152 141.09 38.44C141.09 40.728 139.41 42.376 137.154 42.376Z" fill="#626262"/>
<path d="M153.457 32.84H143.985V34.6H147.681V44.04H149.745V34.6H153.457V32.84Z" fill="#626262"/>
<path d="M162.659 44.04H165.011L161.043 38.264L164.867 32.84H162.659L159.443 37.528H157.299V32.84H155.251V44.04H157.299V39.32H159.379L162.659 44.04Z" fill="#626262"/>
<path d="M174.779 44.04H176.955L171.899 32.84H169.851L164.811 44.04H166.955L168.059 41.448H173.659L174.779 44.04ZM168.763 39.816L170.859 34.92L172.971 39.816H168.763Z" fill="#626262"/>
</svg>